<svg width="45" height="45" viewBox="0 0 45 45" fill="none" xmlns="http://www.w3.org/2000/svg">
<g clip-path="url(#clip0_95_27)">
<path d="M15 13.125C15 15.1141 15.7902 17.0218 17.1967 18.4283C18.6032 19.8348 20.5109 20.625 22.5 20.625C24.4891 20.625 26.3968 19.8348 27.8033 18.4283C29.2098 17.0218 30 15.1141 30 13.125C30 11.1359 29.2098 9.22822 27.8033 7.8217C26.3968 6.41518 24.4891 5.625 22.5 5.625C20.5109 5.625 18.6032 6.41518 17.1967 7.8217C15.7902 9.22822 15 11.1359 15 13.125Z" stroke="white" stroke-width="2" stroke-linecap="round" stroke-linejoin="round"/>
<path d="M11.25 39.375V35.625C11.25 33.6359 12.0402 31.7282 13.4467 30.3217C14.8532 28.9152 16.7609 28.125 18.75 28.125H26.25C28.2391 28.125 30.1468 28.9152 31.5533 30.3217C32.9598 31.7282 33.75 33.6359 33.75 35.625V39.375" stroke="white" stroke-width="2" stroke-linecap="round" stroke-linejoin="round"/>
</g>
<defs>
<clipPath id="clip0_95_27">
<rect width="45" height="45" fill="white"/>
</clipPath>
</defs>
</svg>
